<?xml version="1.0" encoding="UTF-8" standalone="no"?>
<!-- Created with Inkscape (http://www.inkscape.org/) -->

<svg
   width="9.3159714mm"
   height="9.5803423mm"
   viewBox="0 0 9.3159714 9.5803423"
   version="1.1"
   id="svg5"
   inkscape:version="1.2.1 (9c6d41e410, 2022-07-14)"
   sodipodi:docname="bishirTijjani-logo.svg"
   xmlns:inkscape="http://www.inkscape.org/namespaces/inkscape"
   xmlns:sodipodi="http://sodipodi.sourceforge.net/DTD/sodipodi-0.dtd"
   xmlns:xlink="http://www.w3.org/1999/xlink"
   xmlns="http://www.w3.org/2000/svg"
   xmlns:svg="http://www.w3.org/2000/svg">
  <sodipodi:namedview
     id="namedview7"
     pagecolor="#505050"
     bordercolor="#eeeeee"
     borderopacity="1"
     inkscape:showpageshadow="0"
     inkscape:pageopacity="0"
     inkscape:pagecheckerboard="0"
     inkscape:deskcolor="#505050"
     inkscape:document-units="mm"
     showgrid="false"
     inkscape:zoom="7.024959"
     inkscape:cx="-10.747394"
     inkscape:cy="14.377308"
     inkscape:window-width="1600"
     inkscape:window-height="877"
     inkscape:window-x="-8"
     inkscape:window-y="-8"
     inkscape:window-maximized="1"
     inkscape:current-layer="layer1" />
  <defs
     id="defs2">
    <inkscape:path-effect
       effect="bspline"
       id="path-effect3186"
       is_visible="true"
       lpeversion="1"
       weight="33.333333"
       steps="2"
       helper_size="0"
       apply_no_weight="true"
       apply_with_weight="true"
       only_selected="false" />
    <inkscape:path-effect
       effect="bspline"
       id="path-effect1704"
       is_visible="true"
       lpeversion="1"
       weight="33.333333"
       steps="2"
       helper_size="0"
       apply_no_weight="true"
       apply_with_weight="true"
       only_selected="false" />
    <inkscape:path-effect
       effect="bspline"
       id="path-effect1696"
       is_visible="true"
       lpeversion="1"
       weight="33.333333"
       steps="2"
       helper_size="0"
       apply_no_weight="true"
       apply_with_weight="true"
       only_selected="false" />
    <linearGradient
       inkscape:collect="always"
       id="linearGradient1140">
      <stop
         style="stop-color:#0043c3;stop-opacity:1;"
         offset="0"
         id="stop1136" />
      <stop
         style="stop-color:#490664;stop-opacity:1;"
         offset="0.32551408"
         id="stop1272" />
      <stop
         style="stop-color:#300de5;stop-opacity:1;"
         offset="0.66815746"
         id="stop1270" />
      <stop
         style="stop-color:#341836;stop-opacity:1;"
         offset="1"
         id="stop1138" />
    </linearGradient>
    <inkscape:path-effect
       effect="bspline"
       id="path-effect353"
       is_visible="true"
       lpeversion="1"
       weight="33.333333"
       steps="2"
       helper_size="0"
       apply_no_weight="true"
       apply_with_weight="true"
       only_selected="false" />
    <linearGradient
       inkscape:collect="always"
       xlink:href="#linearGradient1140"
       id="linearGradient1144"
       x1="52.950848"
       y1="143.29446"
       x2="60.50769"
       y2="151.91936"
       gradientUnits="userSpaceOnUse" />
    <linearGradient
       inkscape:collect="always"
       xlink:href="#linearGradient1140"
       id="linearGradient3188"
       gradientUnits="userSpaceOnUse"
       x1="52.950848"
       y1="143.29446"
       x2="60.50769"
       y2="151.91936"
       gradientTransform="translate(0.03766333,-0.03766333)" />
  </defs>
  <g
     inkscape:label="Layer 1"
     inkscape:groupmode="layer"
     id="layer1"
     transform="translate(-52.084592,-142.71944)">
    <g
       id="g3195">
      <g
         id="g2435">
        <path
           style="fill:none;stroke:#ffffff;stroke-width:1.05848;stroke-opacity:1"
           d="m 52.740735,144.33328 c 0.244537,-0.39193 0.489235,-0.78412 1.046241,-0.98153 0.557005,-0.19742 1.424769,-0.19975 1.758749,0.8885 0.333981,1.08824 0.133837,3.26636 -0.168689,4.84427 -0.302527,1.57791 -0.707355,2.55544 -1.133778,2.67605 -0.426422,0.12061 -0.874639,-0.61596 -0.910631,-1.76512 -0.03599,-1.14916 0.340478,-2.71073 0.85061,-3.9862 0.510132,-1.27548 1.153893,-2.26465 2.045048,-2.54738 0.891155,-0.28272 2.029289,0.14093 2.401406,0.82133 0.372116,0.68039 -0.02128,1.61724 -0.496885,2.21646 -0.4756,0.59922 -1.032876,0.86024 -1.531879,0.99767 -0.499003,0.13744 -0.939166,0.15097 -1.053952,-3e-4 -0.114786,-0.15127 0.0961,-0.46764 0.791188,-0.54131 0.695089,-0.0737 1.874058,0.0952 2.81781,0.48851 0.943751,0.39331 1.652261,1.01079 1.710687,1.80612 0.05842,0.79533 -0.532879,1.76865 -1.43019,2.19109 -0.89731,0.42243 -2.100889,0.29399 -2.901953,0.0998 -0.801064,-0.19415 -1.199531,-0.45419 -1.460731,-0.62774 -0.261199,-0.17355 -0.385188,-0.26067 -0.50948,-0.34801"
           id="path1700"
           inkscape:path-effect="#path-effect1704"
           inkscape:original-d="m 52.740735,144.33328 c 0.244845,-0.39174 0.489543,-0.78393 0.734119,-1.17661 0.869128,-0.002 1.73689,-0.005 2.60506,-0.007 -0.199892,2.17885 -0.40003,4.35697 -0.600492,6.53502 -0.404566,0.97788 -0.809402,1.95541 -1.214552,2.93276 -0.447936,-0.73633 -0.896152,-1.4729 -1.344669,-2.20974 0.376778,-1.56134 0.753244,-3.12291 1.129432,-4.6848 0.644071,-0.98892 1.287825,-1.9781 1.931297,-2.96755 1.138466,0.42391 2.276596,0.84757 3.414452,1.27097 -0.393229,0.93741 -0.786628,1.87426 -1.180542,2.81136 -0.557478,0.26152 -1.114748,0.52255 -1.672882,0.78355 -0.439946,0.0164 -0.880211,0.0266 -1.32047,0.0406 0.211022,-0.31587 0.42191,-0.63223 0.632427,-0.94874 1.179304,0.16917 2.358271,0.33807 3.536968,0.50667 0.708833,0.61778 1.417343,1.23526 2.125571,1.85248 -0.591037,0.97363 -1.182346,1.94695 -1.773957,2.92004 -1.20336,-0.1282 -2.406941,-0.25662 -3.610898,-0.38534 -0.398175,-0.25978 -0.796646,-0.51981 -1.19538,-0.78009 -0.123683,-0.0868 -0.247652,-0.17395 -0.371913,-0.26133"
           sodipodi:nodetypes="ccccccccccccccccccc" />
        <path
           style="fill:none;stroke:#000058;stroke-width:1.05848;stroke-opacity:1"
           d="m 52.712015,144.38654 c 0.229003,-0.40966 0.458167,-0.8196 1.007403,-1.0259 0.549237,-0.20631 1.417001,-0.20864 1.750981,0.87961 0.333981,1.08824 0.133837,3.26636 -0.168689,4.84427 -0.302527,1.57791 -0.707355,2.55544 -1.133778,2.67605 -0.426422,0.12061 -0.874639,-0.61596 -0.910631,-1.76512 -0.03599,-1.14916 0.340478,-2.71073 0.85061,-3.9862 0.510132,-1.27548 1.153893,-2.26465 2.045048,-2.54738 0.891155,-0.28272 2.029289,0.14093 2.401406,0.82133 0.372116,0.68039 -0.02128,1.61724 -0.496885,2.21646 -0.4756,0.59922 -1.032876,0.86024 -1.531879,0.99767 -0.499003,0.13744 -0.939166,0.15097 -1.053952,-3e-4 -0.114786,-0.15127 0.0961,-0.46764 0.791188,-0.54131 0.695089,-0.0737 1.874058,0.0952 2.81781,0.48851 0.943751,0.39331 1.652261,1.01079 1.710687,1.80612 0.05842,0.79533 -0.532879,1.76865 -1.43019,2.19109 -0.89731,0.42243 -2.100889,0.29399 -2.901953,0.0998 -0.801064,-0.19415 -1.199531,-0.45419 -1.460731,-0.62774 -0.261199,-0.17355 -0.385188,-0.26067 -0.50948,-0.34801"
           id="path1692"
           inkscape:path-effect="#path-effect1696"
           inkscape:original-d="m 52.712015,144.38654 c 0.229337,-0.40947 0.458506,-0.81941 0.687513,-1.22987 0.869128,-0.002 1.73689,-0.005 2.60506,-0.007 -0.199892,2.17885 -0.40003,4.35697 -0.600492,6.53502 -0.404566,0.97788 -0.809402,1.95541 -1.214552,2.93276 -0.447936,-0.73633 -0.896152,-1.4729 -1.344669,-2.20974 0.376778,-1.56134 0.753244,-3.12291 1.129432,-4.6848 0.644071,-0.98892 1.287825,-1.9781 1.931297,-2.96755 1.138466,0.42391 2.276596,0.84757 3.414452,1.27097 -0.393229,0.93741 -0.786628,1.87426 -1.180542,2.81136 -0.557478,0.26152 -1.114748,0.52255 -1.672882,0.78355 -0.439946,0.0164 -0.880211,0.0266 -1.32047,0.0406 0.211022,-0.31587 0.42191,-0.63223 0.632427,-0.94874 1.179304,0.16917 2.358271,0.33807 3.536968,0.50667 0.708833,0.61778 1.417343,1.23526 2.125571,1.85248 -0.591037,0.97363 -1.182346,1.94695 -1.773957,2.92004 -1.20336,-0.1282 -2.406941,-0.25662 -3.610898,-0.38534 -0.398175,-0.25978 -0.796646,-0.51981 -1.19538,-0.78009 -0.123683,-0.0868 -0.247652,-0.17395 -0.371913,-0.26133"
           sodipodi:nodetypes="ccccccccccccccccccc" />
        <path
           style="fill:none;stroke:url(#linearGradient1144);stroke-width:1;stroke-opacity:1"
           d="m 52.52103,144.71174 c 0.216351,-0.38703 0.432852,-0.77432 0.951741,-0.96929 0.518889,-0.19497 1.338706,-0.1973 1.654233,0.83075 0.315527,1.02805 0.126442,3.08582 -0.159369,4.57655 -0.285812,1.49072 -0.668274,2.41425 -1.071133,2.52819 -0.402859,0.11395 -0.82631,-0.58192 -0.860314,-1.66759 -0.034,-1.08567 0.321665,-2.56096 0.803611,-3.76596 0.481945,-1.205 1.090134,-2.13951 1.932051,-2.40661 0.841917,-0.26711 1.917165,0.13313 2.26872,0.77594 0.351555,0.6428 -0.02011,1.52788 -0.46943,2.09399 -0.449323,0.56611 -0.975805,0.81271 -1.447237,0.94256 -0.471432,0.12985 -0.887273,0.14265 -0.995717,-2.6e-4 -0.108444,-0.14291 0.09079,-0.44179 0.747471,-0.5114 0.656682,-0.0696 1.770509,0.0899 2.662116,0.46152 0.891607,0.37158 1.560967,0.95494 1.616165,1.70633 0.0552,0.75138 -0.503436,1.67092 -1.351166,2.07002 -0.847731,0.39909 -1.984809,0.27775 -2.741612,0.0943 -0.756802,-0.18343 -1.133252,-0.4291 -1.380018,-0.59306 -0.246766,-0.16396 -0.363907,-0.24627 -0.481331,-0.32878"
           id="path351"
           inkscape:path-effect="#path-effect353"
           inkscape:original-d="m 52.52103,144.71174 c 0.216665,-0.38685 0.433172,-0.77414 0.649525,-1.16192 0.821106,-0.002 1.640921,-0.005 2.461122,-0.007 -0.188848,2.05846 -0.377927,4.11623 -0.567313,6.17394 -0.382212,0.92385 -0.76468,1.84737 -1.147444,2.77071 -0.423186,-0.69564 -0.846636,-1.39151 -1.270371,-2.08764 0.355959,-1.47507 0.711624,-2.95036 1.067027,-4.42595 0.608484,-0.93428 1.216668,-1.8688 1.824586,-2.80358 1.075562,0.40049 2.150806,0.80074 3.225792,1.20074 -0.371502,0.88562 -0.743164,1.7707 -1.115313,2.65603 -0.526676,0.24707 -1.053155,0.49367 -1.58045,0.74025 -0.415637,0.0155 -0.831576,0.0251 -1.247509,0.0384 0.199362,-0.29842 0.398598,-0.5973 0.597483,-0.89632 1.114143,0.15982 2.227968,0.31939 3.341538,0.47867 0.669668,0.58365 1.33903,1.16701 2.008126,1.75013 -0.55838,0.91983 -1.117017,1.83937 -1.67594,2.75869 -1.13687,-0.12111 -2.273949,-0.24244 -3.411383,-0.36404 -0.376175,-0.24543 -0.752629,-0.49109 -1.129331,-0.73699 -0.116849,-0.082 -0.233969,-0.16434 -0.351364,-0.24689"
           sodipodi:nodetypes="ccccccccccccccccccc" />
        <path
           style="fill:none;stroke:url(#linearGradient3188);stroke-width:1;stroke-opacity:1"
           d="m 52.558693,144.67408 c 0.138997,-0.24848 0.278056,-0.49706 0.386333,-0.69076 0.108278,-0.19369 0.185723,-0.33241 0.634628,-0.40295 0.448904,-0.0705 1.269486,-0.0729 1.585013,0.95517 0.315527,1.02805 0.126442,3.08582 -0.159369,4.57655 -0.285812,1.49072 -0.668274,2.41425 -1.071133,2.52819 -0.402859,0.11395 -0.82631,-0.58192 -0.860314,-1.66759 -0.034,-1.08567 0.321665,-2.56096 0.803611,-3.76596 0.481945,-1.205 1.090134,-2.13951 1.932051,-2.40661 0.841917,-0.26711 1.917165,0.13313 2.26872,0.77594 0.351555,0.6428 -0.02011,1.52788 -0.46943,2.09399 -0.449323,0.56611 -0.975805,0.81271 -1.447237,0.94256 -0.471432,0.12985 -0.887273,0.14265 -0.995717,-2.6e-4 -0.108444,-0.14291 0.09079,-0.44179 0.747471,-0.5114 0.656682,-0.0696 1.770509,0.0899 2.662116,0.46152 0.891607,0.37158 1.560967,0.95494 1.616165,1.70633 0.0552,0.75138 -0.503436,1.67092 -1.351166,2.07002 -0.847731,0.39909 -1.984809,0.27775 -2.741612,0.0943 -0.756802,-0.18343 -1.133252,-0.4291 -1.380018,-0.59306 -0.246766,-0.16396 -0.363907,-0.24627 -0.481331,-0.32878"
           id="path3182"
           inkscape:path-effect="#path-effect3186"
           inkscape:original-d="m 52.558693,144.67408 c 0.139311,-0.2483 0.278186,-0.49699 0.417182,-0.74577 0.07747,-0.13866 0.155188,-0.27722 0.232343,-0.41615 0.820341,-0.002 1.640921,-0.005 2.461122,-0.007 -0.188848,2.05846 -0.377927,4.11623 -0.567313,6.17394 -0.382212,0.92385 -0.76468,1.84737 -1.147444,2.77071 -0.423186,-0.69564 -0.846636,-1.39151 -1.270371,-2.08764 0.355959,-1.47507 0.711624,-2.95036 1.067027,-4.42595 0.608484,-0.93428 1.216668,-1.8688 1.824586,-2.80358 1.075562,0.40049 2.150806,0.80074 3.225792,1.20074 -0.371502,0.88562 -0.743164,1.7707 -1.115313,2.65603 -0.526676,0.24707 -1.053155,0.49367 -1.58045,0.74025 -0.415637,0.0155 -0.831576,0.0251 -1.247509,0.0384 0.199362,-0.29842 0.398598,-0.5973 0.597483,-0.89632 1.114143,0.15982 2.227968,0.31939 3.341538,0.47867 0.669668,0.58365 1.33903,1.16701 2.008126,1.75013 -0.55838,0.91983 -1.117017,1.83937 -1.67594,2.75869 -1.13687,-0.12111 -2.273949,-0.24244 -3.411383,-0.36404 -0.376175,-0.24543 -0.752629,-0.49109 -1.129331,-0.73699 -0.116849,-0.082 -0.233969,-0.16434 -0.351364,-0.24689"
           sodipodi:nodetypes="cccccccccccccccccccc" />
      </g>
    </g>
  </g>
</svg>
